<svg width="128" height="14" viewBox="0 0 128 14" fill="none" xmlns="http://www.w3.org/2000/svg">
<g id="Logo" clip-path="url(#clip0_2202_1766)">
<path id="Vector" d="M61.755 13.99C60.691 13.99 59.7568 14.01 58.7977 13.97C58.6353 13.97 58.4405 13.7203 58.3331 13.5554C57.3723 11.9735 56.4223 10.3857 55.4831 8.79216C55.422 8.652 55.3179 8.53488 55.186 8.45767C55.054 8.38045 54.9009 8.34715 54.7488 8.36254C53.962 8.39001 53.1752 8.36254 52.3085 8.36254V13.9451H49.5234V0.0599508C49.6057 0.0417814 49.6892 0.0292649 49.7732 0.0224858C52.3734 0.0224858 54.9761 -0.0399604 57.5738 0.0399682C60.8483 0.139879 62.7042 3.50937 61.1056 6.34184C60.5061 7.4034 59.5545 7.99037 58.3131 8.2951C59.4571 10.1834 60.5761 12.0343 61.755 13.99ZM52.3459 2.75005V5.68243C54.1368 5.68243 55.8778 5.7149 57.6162 5.66744C58.3905 5.64496 58.8826 5.00054 58.8801 4.23622C58.8776 3.4719 58.3805 2.78752 57.6462 2.76754C55.8878 2.71259 54.1293 2.75005 52.3459 2.75005Z" fill="#262626"/>
<path id="Vector_2" d="M98.3452 0.0174321C99.1844 0.0174321 99.9762 -0.0100429 100.763 0.0374147C101.011 0.0886017 101.231 0.232369 101.377 0.439556C103.439 3.23373 105.49 6.03623 107.529 8.84705C107.644 9.00691 107.779 9.15677 108.012 9.459V0.0524007H110.777V13.99C109.905 13.99 109.028 14.0174 108.171 13.9675C107.987 13.9675 107.789 13.6877 107.649 13.5004C105.618 10.7329 103.592 7.96284 101.572 5.19032C101.455 5.02796 101.323 4.8731 101.073 4.55838V13.96H98.3252L98.3452 0.0174321Z" fill="#262626"/>
<path id="Vector_3" d="M32.8232 0.0349121H43.8509V2.74999H35.6307V5.63241H42.9392V8.34499H35.6232V11.2274H43.8459V13.9575H32.8232V0.0349121Z" fill="#262626"/>
<path id="Vector_4" d="M126.745 5.61993V8.335H119.414V11.2249H127.616V13.955H116.589V0.0673828H127.632V2.74999H119.389V5.61743L126.745 5.61993Z" fill="#262626"/>
<path id="Vector_5" d="M-0.00488281 13.9351V0.0524902H11.0452V2.75008H2.80261V5.61003H10.1685V8.35758H2.79262V11.2175H11.0552V13.9351H-0.00488281Z" fill="#262626"/>
<path id="Vector_6" d="M80.1963 13.9901C80.7433 12.6288 81.2628 11.3424 81.7774 10.0561C83.0462 6.89639 84.3226 3.74171 85.5715 0.564542C85.7438 0.124935 85.9636 -0.0399165 86.4357 4.77936e-05C86.9927 0.0475054 87.5597 -0.022432 88.1167 0.0275234C88.2354 0.0412101 88.3496 0.0810059 88.4511 0.144058C88.5526 0.207109 88.6388 0.29185 88.7037 0.392196C90.5104 4.83823 92.3038 9.28759 94.0839 13.7403C94.1076 13.8218 94.1235 13.9055 94.1313 13.9901C93.2446 13.9901 92.3829 14.0075 91.5187 13.9751C91.4279 13.9539 91.3431 13.9126 91.2705 13.8542C91.1979 13.7959 91.1393 13.7219 91.099 13.6379C90.8018 12.9535 90.5296 12.2541 90.2748 11.5522C90.2441 11.4127 90.1621 11.2898 90.045 11.2079C89.928 11.126 89.7844 11.0911 89.6428 11.1101C87.9993 11.1301 86.3566 11.1301 84.7147 11.1101C84.5726 11.0925 84.4291 11.1286 84.3122 11.2113C84.1953 11.294 84.1135 11.4173 84.0828 11.5572C83.833 12.2166 83.5333 12.8586 83.306 13.5255C83.1736 13.9126 82.9663 14.025 82.5767 14C81.8148 13.9651 81.0505 13.9901 80.1963 13.9901ZM89.0334 8.47748C88.4139 6.8864 87.832 5.38274 87.2475 3.87908L87.0951 3.90156C86.5032 5.40022 85.9087 6.91387 85.2917 8.47748H89.0334Z" fill="#262626"/>
<path id="Vector_7" d="M14.9062 0.0199957C15.8854 0.0199957 16.7571 -0.00498532 17.6238 0.0399745C17.7887 0.0399745 18.0135 0.289754 18.0884 0.479584C19.2699 3.40947 20.4313 6.34684 21.5853 9.28172C21.6852 9.5315 21.7926 9.76879 21.9625 10.1684C22.1248 9.78378 22.2347 9.5315 22.3371 9.27423C23.4936 6.35683 24.655 3.44444 25.789 0.51955C25.8279 0.354066 25.929 0.209884 26.0713 0.116883C26.2135 0.0238809 26.3862 -0.0108108 26.5534 0.0199957C27.3202 0.0574623 28.087 0.0199957 28.9312 0.0199957C28.7589 0.462101 28.614 0.844258 28.4616 1.22392C26.8131 5.31027 25.1679 9.39579 23.5261 13.4805C23.3712 13.8701 23.1914 14.025 22.7767 14C22.0274 13.96 21.2781 14 20.5287 14C18.6529 9.33917 16.7946 4.7183 14.9062 0.0199957Z" fill="#262626"/>
<path id="Vector_8" d="M67.0479 0.0499268H69.7804V11.2274H77.1339V13.945H67.0479V0.0499268Z" fill="#262626"/>
</g>
<defs>
<clipPath id="clip0_2202_1766">
<rect width="127.624" height="14" fill="white"/>
</clipPath>
</defs>
</svg>
